<svg width="50" height="50" viewBox="0 0 50 50" fill="none" xmlns="http://www.w3.org/2000/svg">
<path id="Vector" d="M25 50C11.193 50 0 38.807 0 25C0 11.1922 11.193 0 25 0C38.8078 0 50 11.1922 50 25C50 38.807 38.8078 50 25 50ZM25 3.07578C12.9383 3.07578 3.125 12.9383 3.125 25.0001C3.125 37.0618 12.9383 46.8751 25 46.8751C37.0617 46.8751 46.875 37.0618 46.875 25.0001C46.875 12.9384 37.0617 3.07578 25 3.07578ZM35.9375 26.5625H26.5625V35.9375C26.5625 36.8 25.8625 37.5 25 37.5C24.1375 37.5 23.4375 36.8 23.4375 35.9375V26.5625H14.0625C13.2 26.5625 12.5 25.8625 12.5 25C12.5 24.1375 13.2 23.4375 14.0625 23.4375H23.4375V14.0625C23.4375 13.2 24.1375 12.5 25 12.5C25.8625 12.5 26.5625 13.2 26.5625 14.0625V23.4375H35.9375C36.8 23.4375 37.5 24.1375 37.5 25C37.5 25.8625 36.8 26.5625 35.9375 26.5625Z" fill="white"/>
</svg>
