<svg width="70" height="70" viewBox="0 0 70 70" fill="none" xmlns="http://www.w3.org/2000/svg">
<path id="Vector" d="M32.6667 9.33333V2.33333C32.6667 1.71449 32.9125 1.121 33.3501 0.683417C33.7877 0.245833 34.3812 0 35 0C35.6188 0 36.2123 0.245833 36.6499 0.683417C37.0875 1.121 37.3333 1.71449 37.3333 2.33333V9.33333C37.3333 9.95217 37.0875 10.5457 36.6499 10.9832C36.2123 11.4208 35.6188 11.6667 35 11.6667C34.3812 11.6667 33.7877 11.4208 33.3501 10.9832C32.9125 10.5457 32.6667 9.95217 32.6667 9.33333ZM53.6667 35C53.6667 38.6919 52.5719 42.3009 50.5208 45.3706C48.4696 48.4404 45.5543 50.8329 42.1434 52.2458C38.7325 53.6586 34.9793 54.0282 31.3583 53.308C27.7373 52.5877 24.4113 50.8099 21.8007 48.1993C19.1901 45.5887 17.4123 42.2627 16.692 38.6417C15.9718 35.0207 16.3414 31.2675 17.7542 27.8566C19.1671 24.4457 21.5596 21.5304 24.6294 19.4792C27.6991 17.4281 31.3081 16.3333 35 16.3333C39.949 16.3387 44.6939 18.3071 48.1934 21.8066C51.6929 25.3062 53.6613 30.0509 53.6667 35ZM49 35C49 32.2311 48.1789 29.5243 46.6406 27.222C45.1022 24.9197 42.9157 23.1253 40.3576 22.0657C37.7994 21.0061 34.9845 20.7288 32.2687 21.269C29.553 21.8092 27.0584 23.1426 25.1005 25.1005C23.1426 27.0584 21.8092 29.553 21.269 32.2687C20.7288 34.9845 21.0061 37.7994 22.0657 40.3576C23.1253 42.9157 24.9197 45.1022 27.222 46.6406C29.5243 48.1789 32.2311 49 35 49C38.7118 48.9961 42.2706 47.5199 44.8952 44.8952C47.5199 42.2706 48.9961 38.7118 49 35ZM14.6825 17.9842C15.1203 18.422 15.7142 18.668 16.3333 18.668C16.9525 18.668 17.5463 18.422 17.9842 17.9842C18.422 17.5463 18.668 16.9525 18.668 16.3333C18.668 15.7142 18.422 15.1203 17.9842 14.6825L13.3175 10.0158C12.8797 9.578 12.2858 9.33204 11.6667 9.33204C11.0475 9.33204 10.4537 9.578 10.0158 10.0158C9.578 10.4537 9.33204 11.0475 9.33204 11.6667C9.33204 12.2858 9.578 12.8797 10.0158 13.3175L14.6825 17.9842ZM14.6825 52.0158L10.0158 56.6825C9.578 57.1203 9.33204 57.7141 9.33204 58.3333C9.33204 58.9525 9.578 59.5463 10.0158 59.9842C10.4537 60.422 11.0475 60.668 11.6667 60.668C12.2858 60.668 12.8797 60.422 13.3175 59.9842L17.9842 55.3175C18.201 55.1007 18.3729 54.8433 18.4903 54.5601C18.6076 54.2768 18.668 53.9733 18.668 53.6667C18.668 53.3601 18.6076 53.0565 18.4903 52.7732C18.3729 52.49 18.201 52.2326 17.9842 52.0158C17.7674 51.799 17.51 51.6271 17.2268 51.5098C16.9435 51.3924 16.6399 51.332 16.3333 51.332C16.0267 51.332 15.7232 51.3924 15.4399 51.5098C15.1567 51.6271 14.8993 51.799 14.6825 52.0158ZM53.6667 18.6667C53.9732 18.6669 54.2767 18.6068 54.56 18.4897C54.8432 18.3725 55.1006 18.2008 55.3175 17.9842L59.9842 13.3175C60.422 12.8797 60.668 12.2858 60.668 11.6667C60.668 11.0475 60.422 10.4537 59.9842 10.0158C59.5463 9.578 58.9525 9.33204 58.3333 9.33204C57.7141 9.33204 57.1203 9.578 56.6825 10.0158L52.0158 14.6825C51.6891 15.0088 51.4666 15.4248 51.3764 15.8776C51.2862 16.3305 51.3325 16.7999 51.5092 17.2265C51.686 17.6531 51.9853 18.0176 52.3694 18.274C52.7534 18.5304 53.2049 18.667 53.6667 18.6667ZM55.3175 52.0158C54.8797 51.578 54.2858 51.332 53.6667 51.332C53.0475 51.332 52.4537 51.578 52.0158 52.0158C51.578 52.4537 51.332 53.0475 51.332 53.6667C51.332 54.2858 51.578 54.8797 52.0158 55.3175L56.6825 59.9842C56.8993 60.201 57.1567 60.3729 57.4399 60.4902C57.7232 60.6076 58.0267 60.668 58.3333 60.668C58.6399 60.668 58.9435 60.6076 59.2268 60.4902C59.51 60.3729 59.7674 60.201 59.9842 59.9842C60.201 59.7674 60.3729 59.51 60.4902 59.2268C60.6076 58.9435 60.668 58.6399 60.668 58.3333C60.668 58.0267 60.6076 57.7232 60.4902 57.4399C60.3729 57.1567 60.201 56.8993 59.9842 56.6825L55.3175 52.0158ZM11.6667 35C11.6667 34.3812 11.4208 33.7877 10.9832 33.3501C10.5457 32.9125 9.95217 32.6667 9.33333 32.6667H2.33333C1.71449 32.6667 1.121 32.9125 0.683417 33.3501C0.245833 33.7877 0 34.3812 0 35C0 35.6188 0.245833 36.2123 0.683417 36.6499C1.121 37.0875 1.71449 37.3333 2.33333 37.3333H9.33333C9.95217 37.3333 10.5457 37.0875 10.9832 36.6499C11.4208 36.2123 11.6667 35.6188 11.6667 35ZM35 58.3333C34.3812 58.3333 33.7877 58.5792 33.3501 59.0167C32.9125 59.4543 32.6667 60.0478 32.6667 60.6667V67.6667C32.6667 68.2855 32.9125 68.879 33.3501 69.3166C33.7877 69.7542 34.3812 70 35 70C35.6188 70 36.2123 69.7542 36.6499 69.3166C37.0875 68.879 37.3333 68.2855 37.3333 67.6667V60.6667C37.3333 60.0478 37.0875 59.4543 36.6499 59.0167C36.2123 58.5792 35.6188 58.3333 35 58.3333ZM67.6667 32.6667H60.6667C60.0478 32.6667 59.4543 32.9125 59.0167 33.3501C58.5792 33.7877 58.3333 34.3812 58.3333 35C58.3333 35.6188 58.5792 36.2123 59.0167 36.6499C59.4543 37.0875 60.0478 37.3333 60.6667 37.3333H67.6667C68.2855 37.3333 68.879 37.0875 69.3166 36.6499C69.7542 36.2123 70 35.6188 70 35C70 34.3812 69.7542 33.7877 69.3166 33.3501C68.879 32.9125 68.2855 32.6667 67.6667 32.6667Z" fill="white"/>
</svg>
