<svg width="20" height="20" viewBox="0 0 20 20" fill="none" xmlns="http://www.w3.org/2000/svg">
<path id="Vector" d="M0.833403 11.6676C0.612371 11.6676 0.400392 11.7554 0.244098 11.9117C0.0878048 12.068 0 12.28 0 12.501V19.1666C0 19.3876 0.0878048 19.5996 0.244098 19.7559C0.400392 19.9122 0.612371 20 0.833403 20H7.50063C7.72166 20 7.93364 19.9122 8.08993 19.7559C8.24622 19.5996 8.33403 19.3876 8.33403 19.1666V12.501C8.33403 12.28 8.24622 12.068 8.08993 11.9117C7.93364 11.7554 7.72166 11.6676 7.50063 11.6676H0.833403ZM12.501 11.6676C12.28 11.6676 12.068 11.7554 11.9117 11.9117C11.7554 12.068 11.6676 12.28 11.6676 12.501V19.1666C11.6676 19.3876 11.7554 19.5996 11.9117 19.7559C12.068 19.9122 12.28 20 12.501 20H19.1666C19.3876 20 19.5996 19.9122 19.7559 19.7559C19.9122 19.5996 20 19.3876 20 19.1666V12.501C20 12.28 19.9122 12.068 19.7559 11.9117C19.5996 11.7554 19.3876 11.6676 19.1666 11.6676H12.501ZM0.833403 0C0.612371 0 0.400392 0.0878048 0.244098 0.244097C0.0878048 0.400391 0 0.61237 0 0.833403V7.50063C0 7.72166 0.0878048 7.93364 0.244098 8.08993C0.400392 8.24622 0.612371 8.33403 0.833403 8.33403H7.50063C7.72166 8.33403 7.93364 8.24622 8.08993 8.08993C8.24622 7.93364 8.33403 7.72166 8.33403 7.50063V0.833403C8.33403 0.61237 8.24622 0.400391 8.08993 0.244097C7.93364 0.0878048 7.72166 0 7.50063 0H0.833403ZM12.501 0C12.28 0 12.068 0.0878048 11.9117 0.244097C11.7554 0.400391 11.6676 0.61237 11.6676 0.833403V7.50063C11.6676 7.72166 11.7554 7.93364 11.9117 8.08993C12.068 8.24622 12.28 8.33403 12.501 8.33403H19.1666C19.3876 8.33403 19.5996 8.24622 19.7559 8.08993C19.9122 7.93364 20 7.72166 20 7.50063V0.833403C20 0.61237 19.9122 0.400391 19.7559 0.244097C19.5996 0.0878048 19.3876 0 19.1666 0H12.501Z" fill="white"/>
</svg>
