<svg width="32" height="62" viewBox="0 0 32 62" fill="none" xmlns="http://www.w3.org/2000/svg">
<path id="Vector" d="M0.859949 5.2274C0.585254 4.93161 0.370506 4.58367 0.227962 4.20344C0.0854184 3.8232 0.0178735 3.41812 0.0291822 3.01132C0.0404909 2.60452 0.130434 2.20398 0.293875 1.83255C0.457315 1.46112 0.691053 1.12608 0.981741 0.846573C1.27243 0.56706 1.61438 0.348545 1.98806 0.203502C2.36174 0.0584591 2.75984 -0.010271 3.15963 0.00123676C3.55941 0.0127445 3.95306 0.104264 4.31808 0.270571C4.68311 0.436877 5.01237 0.674714 5.28707 0.9705L31.1677 28.8541C31.7022 29.4294 32 30.191 32 30.9826C32 31.7742 31.7022 32.5358 31.1677 33.111L5.28706 60.9978C5.01418 61.3 4.68499 61.5441 4.31862 61.7158C3.95225 61.8875 3.55601 61.9835 3.15289 61.998C2.74978 62.0126 2.34784 61.9455 1.97042 61.8007C1.593 61.6559 1.24762 61.4362 0.95434 61.1544C0.661065 60.8726 0.42574 60.5343 0.262034 60.1592C0.0983281 59.7841 0.00950294 59.3796 0.000719637 58.9693C-0.00806176 58.5589 0.0633723 58.1509 0.210873 57.7689C0.358374 57.3869 0.579003 57.0385 0.859944 56.744L24.7676 30.9826L0.859949 5.2274Z" fill="#AEAEAE"/>
</svg>
