<svg width="32" height="62" viewBox="0 0 32 62" fill="none" xmlns="http://www.w3.org/2000/svg">
<path id="Vector" d="M31.1401 5.2274C31.4147 4.93161 31.6295 4.58367 31.772 4.20344C31.9146 3.8232 31.9821 3.41812 31.9708 3.01132C31.9595 2.60452 31.8696 2.20398 31.7061 1.83255C31.5427 1.46112 31.3089 1.12608 31.0183 0.846573C30.7276 0.56706 30.3856 0.348545 30.0119 0.203502C29.6383 0.0584591 29.2402 -0.010271 28.8404 0.00123676C28.4406 0.0127445 28.0469 0.104264 27.6819 0.270571C27.3169 0.436877 26.9876 0.674714 26.7129 0.9705L0.832272 28.8541C0.297802 29.4294 2.63938e-06 30.191 2.70858e-06 30.9826C2.77779e-06 31.7742 0.297802 32.5358 0.832272 33.111L26.7129 60.9978C26.9858 61.3 27.315 61.5441 27.6814 61.7158C28.0477 61.8875 28.444 61.9835 28.8471 61.998C29.2502 62.0126 29.6522 61.9455 30.0296 61.8007C30.407 61.6559 30.7524 61.4362 31.0457 61.1544C31.3389 60.8726 31.5743 60.5343 31.738 60.1592C31.9017 59.7841 31.9905 59.3796 31.9993 58.9693C32.0081 58.5589 31.9366 58.1509 31.7891 57.7689C31.6416 57.3869 31.421 57.0385 31.1401 56.744L7.23241 30.9826L31.1401 5.2274Z" fill="#EAEAEA"/>
</svg>
